<?xml version="1.0" encoding="utf-8"?>
<!-- Generator: Adobe Illustrator 16.0.4, SVG Export Plug-In . SVG Version: 6.00 Build 0)  -->
<!DOCTYPE svg PUBLIC "-//W3C//DTD SVG 1.1//EN" "http://www.w3.org/Graphics/SVG/1.1/DTD/svg11.dtd">
<svg version="1.1" xmlns="http://www.w3.org/2000/svg" xmlns:xlink="http://www.w3.org/1999/xlink" x="0px" y="0px" width="960px"
	 height="400px" viewBox="0 0 960 400" enable-background="new 0 0 960 400" xml:space="preserve">
<g id="Asc_x2F_Desc_Height_Grayed_Out" display="none">
	<g display="inline">
		<g>
			<line fill="none" stroke="#939598" stroke-miterlimit="10" x1="0" y1="120.135" x2="2" y2="120.135"/>
			<line fill="none" stroke="#939598" stroke-miterlimit="10" stroke-dasharray="4,4" x1="6" y1="120.135" x2="956" y2="120.135"/>
			<line fill="none" stroke="#939598" stroke-miterlimit="10" x1="958" y1="120.135" x2="960" y2="120.135"/>
		</g>
	</g>
	<g display="inline">
		<g>
			<line fill="none" stroke="#939598" stroke-miterlimit="10" x1="0" y1="268.512" x2="2" y2="268.512"/>
			<line fill="none" stroke="#939598" stroke-miterlimit="10" stroke-dasharray="4,4" x1="6" y1="268.512" x2="956" y2="268.512"/>
			<line fill="none" stroke="#939598" stroke-miterlimit="10" x1="958" y1="268.512" x2="960" y2="268.512"/>
		</g>
	</g>
</g>
<g id="Basic_Line_Grey">
	<g>
		<g>
			<line fill="none" stroke="#D1D3D4" stroke-miterlimit="10" x1="0" y1="227.91" x2="2" y2="227.91"/>
			<line fill="none" stroke="#D1D3D4" stroke-miterlimit="10" stroke-dasharray="4,4" x1="6" y1="227.91" x2="956" y2="227.91"/>
			<line fill="none" stroke="#D1D3D4" stroke-miterlimit="10" x1="958" y1="227.91" x2="960" y2="227.91"/>
		</g>
	</g>
	<g>
		<g>
			<line fill="none" stroke="#D1D3D4" stroke-miterlimit="10" x1="0" y1="163.496" x2="2" y2="163.496"/>
			<line fill="none" stroke="#D1D3D4" stroke-miterlimit="10" stroke-dasharray="4,4" x1="6" y1="163.496" x2="956" y2="163.496"/>
			<line fill="none" stroke="#D1D3D4" stroke-miterlimit="10" x1="958" y1="163.496" x2="960" y2="163.496"/>
		</g>
	</g>
	<g>
		<g>
			<line fill="none" stroke="#D1D3D4" stroke-miterlimit="10" x1="0" y1="117.617" x2="2" y2="117.617"/>
			<line fill="none" stroke="#D1D3D4" stroke-miterlimit="10" stroke-dasharray="4,4" x1="6" y1="117.617" x2="956" y2="117.617"/>
			<line fill="none" stroke="#D1D3D4" stroke-miterlimit="10" x1="958" y1="117.617" x2="960" y2="117.617"/>
		</g>
	</g>
</g>
<g id="Asc_x2F_Desc_Height_Highlight">
	<g>
		<g>
			<line fill="none" stroke="#CC2127" stroke-miterlimit="10" x1="0" y1="118.135" x2="2" y2="118.135"/>
			<line fill="none" stroke="#CC2127" stroke-miterlimit="10" stroke-dasharray="4,4" x1="6" y1="118.135" x2="956" y2="118.135"/>
			<line fill="none" stroke="#CC2127" stroke-miterlimit="10" x1="958" y1="118.135" x2="960" y2="118.135"/>
		</g>
	</g>
	<g>
		<g>
			<line fill="none" stroke="#CC2127" stroke-miterlimit="10" x1="0" y1="268.512" x2="2" y2="268.512"/>
			<line fill="none" stroke="#CC2127" stroke-miterlimit="10" stroke-dasharray="4,4" x1="6" y1="268.512" x2="956" y2="268.512"/>
			<line fill="none" stroke="#CC2127" stroke-miterlimit="10" x1="958" y1="268.512" x2="960" y2="268.512"/>
		</g>
	</g>
	<text transform="matrix(1 0 0 1 837.3584 134.667)" fill="#6D6E71" font-family="'ACaslonPro-Italic'" font-size="18">ascender height</text>
	<text transform="matrix(1 0 0 1 830.5908 284.333)" fill="#6D6E71" font-family="'ACaslonPro-Italic'" font-size="18">descender height</text>
</g>
<g id="Baseline_Grayed_Out" display="none">
	<g display="inline">
		<g>
			<line fill="none" stroke="#939598" stroke-miterlimit="10" x1="0" y1="227.91" x2="2" y2="227.91"/>
			<line fill="none" stroke="#939598" stroke-miterlimit="10" stroke-dasharray="4,4" x1="6" y1="227.91" x2="956" y2="227.91"/>
			<line fill="none" stroke="#939598" stroke-miterlimit="10" x1="958" y1="227.91" x2="960" y2="227.91"/>
		</g>
	</g>
</g>
<g id="Baseline_Highlight" display="none">
	<g display="inline">
		<g>
			<line fill="none" stroke="#CC2127" stroke-miterlimit="10" x1="0" y1="227.91" x2="2" y2="227.91"/>
			<line fill="none" stroke="#CC2127" stroke-miterlimit="10" stroke-dasharray="4,4" x1="6" y1="227.91" x2="956" y2="227.91"/>
			<line fill="none" stroke="#CC2127" stroke-miterlimit="10" x1="958" y1="227.91" x2="960" y2="227.91"/>
		</g>
	</g>
	
		<text transform="matrix(1 0 0 1 887.1279 244)" display="inline" fill="#6D6E71" font-family="'ACaslonPro-Italic'" font-size="18">baseline</text>
</g>
<g id="Asc_x2F_Desc_Grayed_Out" display="none">
	<g display="inline">
		<g>
			<line fill="none" stroke="#939598" stroke-miterlimit="10" x1="731.334" y1="165.929" x2="731.334" y2="163.929"/>
			
				<line fill="none" stroke="#939598" stroke-miterlimit="10" stroke-dasharray="3.7929,3.7929" x1="731.334" y1="160.136" x2="731.334" y2="124.103"/>
			<line fill="none" stroke="#939598" stroke-miterlimit="10" x1="731.334" y1="122.207" x2="731.334" y2="120.207"/>
			<g>
				<circle fill="#939598" cx="731.334" cy="165.872" r="1.128"/>
			</g>
			<g>
				<circle fill="#939598" cx="731.334" cy="120.263" r="1.128"/>
			</g>
		</g>
	</g>
</g>
<g id="Asc_x2F_Desc_Highlight" display="none">
	<g display="inline">
		<g>
			<line fill="none" stroke="#CC2127" stroke-miterlimit="10" x1="731.334" y1="165.929" x2="731.334" y2="163.929"/>
			
				<line fill="none" stroke="#CC2127" stroke-miterlimit="10" stroke-dasharray="3.7929,3.7929" x1="731.334" y1="160.136" x2="731.334" y2="124.103"/>
			<line fill="none" stroke="#CC2127" stroke-miterlimit="10" x1="731.334" y1="122.207" x2="731.334" y2="120.207"/>
			<g>
				<circle fill="#CC2127" cx="731.334" cy="165.872" r="1.128"/>
			</g>
			<g>
				<circle fill="#CC2127" cx="731.334" cy="120.263" r="1.128"/>
			</g>
		</g>
	</g>
	<g display="inline">
		<g>
			<line fill="none" stroke="#CC2127" stroke-miterlimit="10" x1="801.439" y1="267.92" x2="802.265" y2="266.098"/>
			
				<line fill="none" stroke="#CC2127" stroke-miterlimit="10" stroke-dasharray="3.8488,3.8488" x1="803.854" y1="262.593" x2="815.771" y2="236.302"/>
			<line fill="none" stroke="#CC2127" stroke-miterlimit="10" x1="816.565" y1="234.549" x2="817.391" y2="232.727"/>
			<g>
				<circle fill="#CC2127" cx="801.463" cy="267.868" r="1.128"/>
			</g>
			<g>
				<circle fill="#CC2127" cx="817.367" cy="232.778" r="1.128"/>
			</g>
		</g>
	</g>
	<g display="inline">
		<g>
			<line fill="none" stroke="#CC2127" stroke-miterlimit="10" x1="654.417" y1="259.679" x2="654.417" y2="257.679"/>
			
				<line fill="none" stroke="#CC2127" stroke-miterlimit="10" stroke-dasharray="3.5418,3.5418" x1="654.417" y1="254.137" x2="654.417" y2="234.657"/>
			<line fill="none" stroke="#CC2127" stroke-miterlimit="10" x1="654.417" y1="232.886" x2="654.417" y2="230.886"/>
			<g>
				<circle fill="#CC2127" cx="654.417" cy="259.622" r="1.128"/>
			</g>
			<g>
				<circle fill="#CC2127" cx="654.417" cy="230.942" r="1.128"/>
			</g>
		</g>
	</g>
	<g display="inline">
		<g>
			<line fill="none" stroke="#CC2127" stroke-miterlimit="10" x1="308.667" y1="260.096" x2="308.667" y2="258.096"/>
			
				<line fill="none" stroke="#CC2127" stroke-miterlimit="10" stroke-dasharray="3.5418,3.5418" x1="308.667" y1="254.554" x2="308.667" y2="235.074"/>
			<line fill="none" stroke="#CC2127" stroke-miterlimit="10" x1="308.667" y1="233.303" x2="308.667" y2="231.303"/>
			<g>
				<circle fill="#CC2127" cx="308.667" cy="260.039" r="1.128"/>
			</g>
			<g>
				<circle fill="#CC2127" cx="308.667" cy="231.359" r="1.128"/>
			</g>
		</g>
	</g>
	<g display="inline">
		<g>
			<line fill="none" stroke="#CC2127" stroke-miterlimit="10" x1="230.695" y1="267.932" x2="231.529" y2="266.113"/>
			
				<line fill="none" stroke="#CC2127" stroke-miterlimit="10" stroke-dasharray="3.8487,3.8487" x1="233.133" y1="262.615" x2="245.167" y2="236.378"/>
			<line fill="none" stroke="#CC2127" stroke-miterlimit="10" x1="245.969" y1="234.629" x2="246.803" y2="232.811"/>
			<g>
				<circle fill="#CC2127" cx="230.718" cy="267.88" r="1.128"/>
			</g>
			<g>
				<circle fill="#CC2127" cx="246.78" cy="232.862" r="1.128"/>
			</g>
		</g>
	</g>
	<g display="inline">
		<g>
			<line fill="none" stroke="#CC2127" stroke-miterlimit="10" x1="433.75" y1="268.429" x2="433.75" y2="266.429"/>
			
				<line fill="none" stroke="#CC2127" stroke-miterlimit="10" stroke-dasharray="4.0813,4.0813" x1="433.75" y1="262.347" x2="433.75" y2="231.737"/>
			<line fill="none" stroke="#CC2127" stroke-miterlimit="10" x1="433.75" y1="229.696" x2="433.75" y2="227.696"/>
			<g>
				<circle fill="#CC2127" cx="433.75" cy="268.372" r="1.128"/>
			</g>
			<g>
				<circle fill="#CC2127" cx="433.75" cy="227.753" r="1.128"/>
			</g>
		</g>
	</g>
</g>
<g id="Kerning_Grayed_Out" display="none">
	<g display="inline">
		<g>
			<line fill="none" stroke="#939598" stroke-miterlimit="10" x1="547.246" y1="214.463" x2="547.246" y2="216.463"/>
			
				<line fill="none" stroke="#939598" stroke-miterlimit="10" stroke-dasharray="4.5926,2.2963" x1="547.246" y1="218.759" x2="547.246" y2="231.389"/>
			<polyline fill="none" stroke="#939598" stroke-miterlimit="10" points="547.246,232.537 547.246,234.537 549.246,234.537 			"/>
			
				<line fill="none" stroke="#939598" stroke-miterlimit="10" stroke-dasharray="4.548,2.274" x1="551.521" y1="234.537" x2="564.027" y2="234.537"/>
			<polyline fill="none" stroke="#939598" stroke-miterlimit="10" points="565.164,234.537 567.164,234.537 567.164,232.537 			"/>
			
				<line fill="none" stroke="#939598" stroke-miterlimit="10" stroke-dasharray="4.5926,2.2963" x1="567.164" y1="230.241" x2="567.164" y2="217.611"/>
			<line fill="none" stroke="#939598" stroke-miterlimit="10" x1="567.164" y1="216.463" x2="567.164" y2="214.463"/>
		</g>
	</g>
</g>
<g id="Kerning_Highlight" display="none">
	<g display="inline">
		<g>
			<line fill="none" stroke="#CC2127" stroke-miterlimit="10" x1="254.249" y1="214.463" x2="254.249" y2="216.463"/>
			
				<line fill="none" stroke="#CC2127" stroke-miterlimit="10" stroke-dasharray="4.5926,2.2963" x1="254.249" y1="218.759" x2="254.249" y2="231.389"/>
			<polyline fill="none" stroke="#CC2127" stroke-miterlimit="10" points="254.249,232.537 254.249,234.537 256.249,234.537 			"/>
			
				<line fill="none" stroke="#CC2127" stroke-miterlimit="10" stroke-dasharray="4.2604,2.1302" x1="258.379" y1="234.537" x2="289.268" y2="234.537"/>
			<polyline fill="none" stroke="#CC2127" stroke-miterlimit="10" points="290.333,234.537 292.333,234.537 292.333,232.537 			"/>
			
				<line fill="none" stroke="#CC2127" stroke-miterlimit="10" stroke-dasharray="4.5926,2.2963" x1="292.333" y1="230.241" x2="292.333" y2="217.611"/>
			<line fill="none" stroke="#CC2127" stroke-miterlimit="10" x1="292.333" y1="216.463" x2="292.333" y2="214.463"/>
		</g>
	</g>
	<g display="inline">
		<g>
			<line fill="none" stroke="#CC2127" stroke-miterlimit="10" x1="191.416" y1="214.463" x2="191.416" y2="216.463"/>
			
				<line fill="none" stroke="#CC2127" stroke-miterlimit="10" stroke-dasharray="4.5926,2.2963" x1="191.416" y1="218.759" x2="191.416" y2="231.389"/>
			<polyline fill="none" stroke="#CC2127" stroke-miterlimit="10" points="191.416,232.537 191.416,234.537 193.416,234.537 			"/>
			
				<line fill="none" stroke="#CC2127" stroke-miterlimit="10" stroke-dasharray="4.1459,2.0729" x1="195.489" y1="234.537" x2="225.546" y2="234.537"/>
			<polyline fill="none" stroke="#CC2127" stroke-miterlimit="10" points="226.583,234.537 228.583,234.537 228.583,232.537 			"/>
			
				<line fill="none" stroke="#CC2127" stroke-miterlimit="10" stroke-dasharray="4.5926,2.2963" x1="228.583" y1="230.241" x2="228.583" y2="217.611"/>
			<line fill="none" stroke="#CC2127" stroke-miterlimit="10" x1="228.583" y1="216.463" x2="228.583" y2="214.463"/>
		</g>
	</g>
	<g display="inline">
		<g>
			<line fill="none" stroke="#CC2127" stroke-miterlimit="10" x1="350.832" y1="214.463" x2="350.832" y2="216.463"/>
			
				<line fill="none" stroke="#CC2127" stroke-miterlimit="10" stroke-dasharray="4.5926,2.2963" x1="350.832" y1="218.759" x2="350.832" y2="231.389"/>
			<polyline fill="none" stroke="#CC2127" stroke-miterlimit="10" points="350.832,232.537 350.832,234.537 352.832,234.537 			"/>
			
				<line fill="none" stroke="#CC2127" stroke-miterlimit="10" stroke-dasharray="3.3809,1.6904" x1="354.522" y1="234.537" x2="363.819" y2="234.537"/>
			<polyline fill="none" stroke="#CC2127" stroke-miterlimit="10" points="364.665,234.537 366.665,234.537 366.665,232.537 			"/>
			
				<line fill="none" stroke="#CC2127" stroke-miterlimit="10" stroke-dasharray="4.5926,2.2963" x1="366.665" y1="230.241" x2="366.665" y2="217.611"/>
			<line fill="none" stroke="#CC2127" stroke-miterlimit="10" x1="366.665" y1="216.463" x2="366.665" y2="214.463"/>
		</g>
	</g>
	<g display="inline">
		<g>
			<line fill="none" stroke="#CC2127" stroke-miterlimit="10" x1="426.332" y1="214.463" x2="426.332" y2="216.463"/>
			
				<line fill="none" stroke="#CC2127" stroke-miterlimit="10" stroke-dasharray="4.5926,2.2963" x1="426.332" y1="218.759" x2="426.332" y2="231.389"/>
			<polyline fill="none" stroke="#CC2127" stroke-miterlimit="10" points="426.332,232.537 426.332,234.537 428.332,234.537 			"/>
			
				<line fill="none" stroke="#CC2127" stroke-miterlimit="10" stroke-dasharray="4.3342,2.1671" x1="430.499" y1="234.537" x2="435.917" y2="234.537"/>
			<polyline fill="none" stroke="#CC2127" stroke-miterlimit="10" points="437,234.537 439,234.537 439,232.537 			"/>
			
				<line fill="none" stroke="#CC2127" stroke-miterlimit="10" stroke-dasharray="4.5926,2.2963" x1="439" y1="230.241" x2="439" y2="217.611"/>
			<line fill="none" stroke="#CC2127" stroke-miterlimit="10" x1="439" y1="216.463" x2="439" y2="214.463"/>
		</g>
	</g>
	<g display="inline">
		<g>
			<line fill="none" stroke="#CC2127" stroke-miterlimit="10" x1="509.582" y1="214.463" x2="509.582" y2="216.463"/>
			
				<line fill="none" stroke="#CC2127" stroke-miterlimit="10" stroke-dasharray="4.5926,2.2963" x1="509.582" y1="218.759" x2="509.582" y2="231.389"/>
			<polyline fill="none" stroke="#CC2127" stroke-miterlimit="10" points="509.582,232.537 509.582,234.537 507.582,234.537 			"/>
			<polyline fill="none" stroke="#CC2127" stroke-miterlimit="10" points="506,234.537 504,234.537 502.654,233.058 			"/>
			<polyline fill="none" stroke="#CC2127" stroke-miterlimit="10" stroke-dasharray="3.8598,1.9299" points="501.355,231.63 
				495.664,225.375 495.664,217.428 			"/>
			<line fill="none" stroke="#CC2127" stroke-miterlimit="10" x1="495.664" y1="216.463" x2="495.664" y2="214.463"/>
		</g>
	</g>
	<g display="inline">
		<g>
			<line fill="none" stroke="#CC2127" stroke-miterlimit="10" x1="547.246" y1="214.463" x2="547.246" y2="216.463"/>
			
				<line fill="none" stroke="#CC2127" stroke-miterlimit="10" stroke-dasharray="4.5926,2.2963" x1="547.246" y1="218.759" x2="547.246" y2="231.389"/>
			<polyline fill="none" stroke="#CC2127" stroke-miterlimit="10" points="547.246,232.537 547.246,234.537 549.246,234.537 			"/>
			
				<line fill="none" stroke="#CC2127" stroke-miterlimit="10" stroke-dasharray="4.548,2.274" x1="551.521" y1="234.537" x2="564.027" y2="234.537"/>
			<polyline fill="none" stroke="#CC2127" stroke-miterlimit="10" points="565.164,234.537 567.164,234.537 567.164,232.537 			"/>
			
				<line fill="none" stroke="#CC2127" stroke-miterlimit="10" stroke-dasharray="4.5926,2.2963" x1="567.164" y1="230.241" x2="567.164" y2="217.611"/>
			<line fill="none" stroke="#CC2127" stroke-miterlimit="10" x1="567.164" y1="216.463" x2="567.164" y2="214.463"/>
		</g>
	</g>
	<g display="inline">
		<g>
			<line fill="none" stroke="#CC2127" stroke-miterlimit="10" x1="626.331" y1="214.463" x2="626.331" y2="216.463"/>
			
				<line fill="none" stroke="#CC2127" stroke-miterlimit="10" stroke-dasharray="4.5926,2.2963" x1="626.331" y1="218.759" x2="626.331" y2="231.389"/>
			<polyline fill="none" stroke="#CC2127" stroke-miterlimit="10" points="626.331,232.537 626.331,234.537 628.331,234.537 			"/>
			
				<line fill="none" stroke="#CC2127" stroke-miterlimit="10" stroke-dasharray="4.334,2.167" x1="630.498" y1="234.537" x2="635.916" y2="234.537"/>
			<polyline fill="none" stroke="#CC2127" stroke-miterlimit="10" points="636.999,234.537 638.999,234.537 638.999,232.537 			"/>
			
				<line fill="none" stroke="#CC2127" stroke-miterlimit="10" stroke-dasharray="4.5926,2.2963" x1="638.999" y1="230.241" x2="638.999" y2="217.611"/>
			<line fill="none" stroke="#CC2127" stroke-miterlimit="10" x1="638.999" y1="216.463" x2="638.999" y2="214.463"/>
		</g>
	</g>
	<g display="inline">
		<g>
			
				<line fill="none" stroke="#CC2127" stroke-miterlimit="10" stroke-dasharray="4" x1="690.163" y1="222.5" x2="690.163" y2="224.5"/>
			
				<line fill="none" stroke="#CC2127" stroke-miterlimit="10" stroke-dasharray="4.0186,2.0093" x1="690.163" y1="226.51" x2="690.163" y2="231.532"/>
			<polyline fill="none" stroke="#CC2127" stroke-miterlimit="10" points="690.163,232.537 690.163,234.537 692.163,234.537 			"/>
			
				<line fill="none" stroke="#CC2127" stroke-miterlimit="10" stroke-dasharray="3.048,1.524" x1="693.688" y1="234.537" x2="702.069" y2="234.537"/>
			<polyline fill="none" stroke="#CC2127" stroke-miterlimit="10" points="702.831,234.537 704.831,234.537 704.831,232.537 			"/>
			
				<line fill="none" stroke="#CC2127" stroke-miterlimit="10" stroke-dasharray="4.5926,2.2963" x1="704.831" y1="230.241" x2="704.831" y2="217.611"/>
			<line fill="none" stroke="#CC2127" stroke-miterlimit="10" x1="704.831" y1="216.463" x2="704.831" y2="214.463"/>
		</g>
	</g>
	<g display="inline">
		<g>
			<line fill="none" stroke="#CC2127" stroke-miterlimit="10" x1="782.333" y1="214.463" x2="782.333" y2="216.463"/>
			
				<line fill="none" stroke="#CC2127" stroke-miterlimit="10" stroke-dasharray="4.5926,2.2963" x1="782.333" y1="218.759" x2="782.333" y2="231.389"/>
			<polyline fill="none" stroke="#CC2127" stroke-miterlimit="10" points="782.333,232.537 782.333,234.537 784.333,234.537 			"/>
			
				<line fill="none" stroke="#CC2127" stroke-miterlimit="10" stroke-dasharray="4.2143,2.1071" x1="786.44" y1="234.537" x2="798.029" y2="234.537"/>
			<polyline fill="none" stroke="#CC2127" stroke-miterlimit="10" points="799.083,234.537 801.083,234.537 801.083,232.537 			"/>
			
				<line fill="none" stroke="#CC2127" stroke-miterlimit="10" stroke-dasharray="4.5926,2.2963" x1="801.083" y1="230.241" x2="801.083" y2="217.611"/>
			<line fill="none" stroke="#CC2127" stroke-miterlimit="10" x1="801.083" y1="216.463" x2="801.083" y2="214.463"/>
		</g>
	</g>
</g>
<g id="Cap_x2F_X_Grayed_Out" display="none">
	<g display="inline">
		<g>
			<line fill="none" stroke="#939598" stroke-miterlimit="10" x1="0" y1="163.496" x2="2" y2="163.496"/>
			<line fill="none" stroke="#939598" stroke-miterlimit="10" stroke-dasharray="4,4" x1="6" y1="163.496" x2="956" y2="163.496"/>
			<line fill="none" stroke="#939598" stroke-miterlimit="10" x1="958" y1="163.496" x2="960" y2="163.496"/>
		</g>
	</g>
	<g display="inline">
		<g>
			<line fill="none" stroke="#939598" stroke-miterlimit="10" x1="0" y1="116.617" x2="2" y2="116.617"/>
			<line fill="none" stroke="#939598" stroke-miterlimit="10" stroke-dasharray="4,4" x1="6" y1="116.617" x2="956" y2="116.617"/>
			<line fill="none" stroke="#939598" stroke-miterlimit="10" x1="958" y1="116.617" x2="960" y2="116.617"/>
		</g>
	</g>
</g>
<g id="Cap_x2F_X_Highlight" display="none">
	<g display="inline">
		<g>
			<line fill="none" stroke="#CC2127" stroke-miterlimit="10" x1="0" y1="163.496" x2="2" y2="163.496"/>
			<line fill="none" stroke="#CC2127" stroke-miterlimit="10" stroke-dasharray="4,4" x1="6" y1="163.496" x2="956" y2="163.496"/>
			<line fill="none" stroke="#CC2127" stroke-miterlimit="10" x1="958" y1="163.496" x2="960" y2="163.496"/>
		</g>
	</g>
	<g display="inline">
		<g>
			<line fill="none" stroke="#CC2127" stroke-miterlimit="10" x1="0" y1="117.617" x2="2" y2="117.617"/>
			<line fill="none" stroke="#CC2127" stroke-miterlimit="10" stroke-dasharray="4,4" x1="6" y1="117.617" x2="956" y2="117.617"/>
			<line fill="none" stroke="#CC2127" stroke-miterlimit="10" x1="958" y1="117.617" x2="960" y2="117.617"/>
		</g>
	</g>
	
		<text transform="matrix(1 0 0 1 882.5918 179)" display="inline" fill="#6D6E71" font-family="'ACaslonPro-Italic'" font-size="18">x-height</text>
	
		<text transform="matrix(1 0 0 1 872.1338 109.667)" display="inline" fill="#6D6E71" font-family="'ACaslonPro-Italic'" font-size="18">cap height</text>
</g>
<g id="START_-_Typograhy">
	<g>
		<path d="M158.857,126.788h-3.75c-4.8,0-17.849,0-23.699,1.8c-6.75,2.1-11.25,12.6-13.349,17.399c-0.3,0.75-0.75,0.9-1.5,0.75
			l-2.7-0.75c-0.45-0.15-0.9-0.3-0.6-1.2c1.5-5.399,6.75-24.749,7.049-26.398c0.3-1.95,0.9-2.4,1.5-2.4c0.75,0,1.2,0.15,1.8,0.6
			l1.95,1.35c2.7,1.95,4.2,2.4,8.55,2.55c7.95,0.3,14.25,0.9,28.349,0.9h7.2c16.35,0,22.799-0.6,30.149-0.9
			c3.3-0.15,5.25-0.6,7.8-2.1l2.85-1.8c0.75-0.45,1.2-0.6,1.8-0.6c0.75,0,1.05,0.45,1.35,2.4c0.3,1.8,3.15,20.399,4.35,26.999
			c0.15,0.75-0.15,1.05-0.9,1.2l-2.4,0.6c-0.6,0.15-0.75,0-1.2-1.05c-1.2-2.85-5.7-14.399-10.649-16.799
			c-4.5-2.25-18.6-2.55-25.949-2.55h-4.2v42.748c0,2.1,0,44.099,0.15,46.648c0.3,3.749,1.5,5.999,5.1,5.999h9.45
			c1.35,0,1.5,0.451,1.5,1.5v3.15c0,0.75-0.15,1.2-1.5,1.2c-1.5,0-6.3-0.45-20.999-0.45c-14.399,0-20.699,0.45-22.799,0.45
			c-1.2,0-1.35-0.601-1.35-1.5v-2.851c0-1.049,0.15-1.5,1.05-1.5h10.2c3,0,4.8-1.799,4.95-3.6c0.45-4.35,0.45-50.397,0.45-53.248
			V126.788z"/>
		<path d="M209.858,260.732c0-3.149,3.3-5.85,6.899-5.85c2.85,0,5.55,1.35,6.9,1.65c1.05,0.149,2.25,0,3.15-0.9
			c2.25-2.7,9.899-19.799,12-25.648c-0.75-3.75-16.649-50.698-17.849-53.848c-1.8-3.75-3.15-6.3-7.05-6.3h-3.9
			c-1.05,0-1.2-0.45-1.2-1.35v-3c0-0.6,0.15-1.05,1.2-1.05c1.35,0,4.95,0.45,13.799,0.45c7.65,0,12.3-0.45,13.95-0.45
			c1.2,0,1.35,0.45,1.35,1.05v3.15c0,0.75-0.15,1.2-0.9,1.2h-2.85c-1.65,0-2.25,1.05-1.95,3.3c0.45,3.3,10.65,36.449,12.3,39.749
			h0.6c1.5-2.4,14.55-33.599,15.45-37.349s-0.3-5.7-2.55-5.7h-2.4c-0.9,0-1.05-0.45-1.05-1.2v-3c0-0.75,0.15-1.2,0.9-1.2
			c1.95,0,5.1,0.45,12.3,0.45c4.05,0,7.5-0.45,9.149-0.45c0.9,0,0.9,0.6,0.9,1.2v2.85c0,0.9,0,1.35-0.75,1.35h-2.4
			c-1.65,0-3.75,0.75-5.25,2.7c-3.3,4.05-13.2,26.999-23.549,50.548c-7.35,16.649-13.199,30.599-15.899,35.549
			c-2.1,3.899-4.8,9.75-12.75,9.75C212.708,268.383,209.858,265.232,209.858,260.732z"/>
		<path d="M294.906,185.136c0-3.6-1.05-5.7-5.4-8.1l-3.45-1.95c-1.05-0.45-1.05-0.9-1.05-1.35v-1.2c0-0.45,0.3-0.75,1.05-1.05
			l14.399-7.2c1.2-0.6,2.4-1.2,3.45-1.2c0.75,0,1.05,0.75,1.05,3l0.6,7.2h0.45c4.05-5.25,11.849-10.049,21.899-10.049
			c7.649,0,12.75,3.3,17.099,7.35c5.7,5.7,8.1,11.85,8.1,23.399c0,19.649-13.649,35.398-32.398,35.398c-4.05,0-10.35-0.6-15-2.55
			v31.648c0,4.2,1.05,4.95,3.3,4.95h6.6c1.2,0,1.35,0.6,1.35,1.5v2.55c0,0.9-0.3,1.35-1.35,1.35c-0.75,0-5.85-0.45-15.449-0.45
			c-8.7,0-13.949,0.45-15.149,0.45c-1.05,0-1.35-0.449-1.35-1.35v-2.7c0-0.75,0.3-1.35,1.8-1.35h5.85c2.55,0,2.85-1.5,3.15-3.75
			c0.45-3.3,0.45-11.399,0.45-26.099V185.136z M305.706,212.584c0,3.301,0.3,6,3.15,7.95c4.2,3,8.85,4.05,15,4.05
			c8.55,0,17.399-6.449,17.399-25.049c0-20.999-9.45-29.399-19.5-29.399c-6.3,0-12.449,3.6-16.049,9.6V212.584z"/>
		<path d="M373.805,219.034c-6.9-8.249-8.25-13.8-8.25-24.449c0-7.65,4.05-17.25,12.899-24.149c7.799-6,15.149-7.2,20.099-7.2
			c8.25,0,16.499,4.2,20.999,8.699c6.75,6.9,10.2,14.7,10.2,24.449c0,16.349-14.7,32.999-33.149,32.999
			C389.404,229.384,380.105,226.534,373.805,219.034z M417.153,194.885c0-16.649-12.149-27.149-19.799-27.149
			c-4.05,0-7.95,0.9-11.549,4.8c-5.85,6-7.95,12.149-7.95,23.549c0,8.399,0.9,14.099,5.7,20.999c3.45,4.95,7.8,7.801,14.85,7.801
			C409.804,224.885,417.153,210.935,417.153,194.885z"/>
		<path d="M443.403,263.582c-5.4-3.3-7.649-7.199-7.649-12.149c0-8.399,8.549-14.849,15.749-17.999v-0.6
			c-6.3-1.35-10.049-6-10.049-10.5c0-7.199,8.25-12.299,13.5-14.249v-0.3c-5.85-2.551-13.95-9.45-13.95-22.799
			c0-9.75,8.7-21.749,25.649-21.749c11.399,0,17.399,6.899,18.899,8.699c4.051-2.85,9.15-5.85,14.1-5.85s7.35,3.3,7.051,6.3
			c0,2.85-2.4,5.55-5.85,5.55c-2.551,0-4.051-1.2-5.25-2.25c-0.9-0.6-1.951-1.35-3.15-1.35c-1.051,0-2.85,0-4.801,0.9
			c1.201,3,2.25,6.299,2.25,11.399c0,5.85-1.648,11.549-5.549,16.199c-3.9,4.35-12.45,7.499-17.399,7.499
			c-3.3,0-5.4-0.149-7.65-0.749c-3,1.2-7.95,4.2-7.95,8.399c0,6.15,7.5,5.699,17.549,5.1c12.299-0.6,19.799,0.75,25.799,5.4
			c6.449,4.799,7.199,10.799,7.35,14.398c0,7.05-2.551,12.9-10.051,18.45c-3.898,2.85-12.898,7.05-25.648,7.05
			C459.152,268.383,450.603,267.633,443.403,263.582z M492.9,248.133c0-8.85-6.749-15.6-21.749-14.549l-14.399,1.05
			c-4.65,1.2-12,6.3-12,14.399c0,3.75,2.85,8.25,5.85,10.35c4.95,3.45,10.35,4.199,20.999,4.199
			C477.151,263.582,493.65,259.683,492.9,248.133z M478.952,184.236c0-6.6-1.35-10.5-4.05-13.5c-1.95-1.95-4.95-3.3-7.2-3.3
			c-3.45,0-7.05,0.6-10.65,4.2c-4.8,5.1-5.399,12-5.399,17.699c0,5.1,1.65,9.75,4.8,13.049c2.7,2.551,5.399,3.75,9,3.75
			C475.652,206.135,478.952,193.686,478.952,184.236z"/>
		<path d="M522.6,187.686c0-7.649-1.199-9.149-5.4-11.399l-2.85-1.5c-0.9-0.3-1.199-0.45-1.199-1.05v-0.9
			c0-0.6,0.299-0.9,1.199-1.35l14.85-7.65c0.9-0.45,1.5-0.6,2.1-0.6c0.9,0,1.051,0.9,1.051,1.8l0.75,10.649h0.6
			c4.5-6.9,11.549-13.049,18-13.049c5.1,0,7.648,3.15,7.648,6.6c0,4.35-3.6,7.35-6.299,7.35c-1.65,0-3.15-0.6-4.35-1.2
			c-1.201-0.75-3-1.2-4.951-1.2c-2.398,0-6.299,1.5-8.85,6.3c-0.898,1.65-1.5,4.35-1.5,4.8v31.199c0,4.65,1.051,6.15,4.201,6.15
			h7.049c0.9,0,1.051,0.449,1.051,1.35v2.699c0,0.9-0.15,1.351-0.75,1.351c-0.9,0-7.801-0.45-15.9-0.45
			c-9.299,0-15.6,0.45-16.498,0.45c-0.602,0-0.9-0.3-0.9-1.5v-2.55c0-1.051,0.299-1.35,1.65-1.35h5.85c2.25,0,3.299-0.9,3.299-2.851
			c0.15-4.95,0.15-10.199,0.15-17.999V187.686z"/>
		<path d="M611.996,209.734c0,8.55,1.799,11.25,4.498,11.25c2.4,0,4.5-1.2,5.25-2.25c0.6-0.75,0.9-1.05,1.5-0.6l1.5,1.199
			c0.451,0.45,0.75,1.2-0.15,2.7c-1.199,2.25-4.049,7.35-11.699,7.35c-5.398,0-9.299-3.899-10.648-10.05h-0.301
			c-3.15,3.75-8.1,6.9-14.85,9.15c-2.85,0.899-5.549,0.899-8.85,0.899c-3.6,0-9-3-9-12.449c0-6.899,3.15-12.899,15-18.149
			c6.75-3,14.549-6.6,16.949-8.7v-9.6c-0.299-2.55-0.449-6.45-2.1-8.399c-1.65-1.95-4.65-3.3-9-3.3c-3,0-7.648,1.2-9.75,3.15
			c-2.1,1.95-0.75,4.2-0.75,6.9c0,5.25-1.799,8.55-7.949,8.55c-2.4,0-3.6-1.35-3.6-4.8c0-4.8,4.199-10.5,10.35-14.1
			c6.299-3.75,11.549-5.25,18.299-5.25c7.051,0,9.9,2.1,12,4.05c3.15,3.15,3.301,6.6,3.301,10.649v22.949V209.734z M601.045,194.585
			c-5.398,4.05-20.098,7.049-20.098,19.499c0,5.551,3.299,8.25,7.799,8.25c4.35,0,12.299-5.25,12.299-9.299V194.585z"/>
		<path d="M640.645,185.136c0-3.6-1.051-5.7-5.4-8.1l-3.449-1.95c-1.051-0.45-1.051-0.9-1.051-1.35v-1.2
			c0-0.45,0.301-0.75,1.051-1.05l14.398-7.2c1.201-0.6,2.4-1.2,3.449-1.2c0.75,0,1.051,0.75,1.051,3l0.6,7.2h0.451
			c4.049-5.25,11.85-10.049,21.898-10.049c7.65,0,12.75,3.3,17.1,7.35c5.699,5.7,8.1,11.85,8.1,23.399
			c0,19.649-13.65,35.398-32.398,35.398c-4.051,0-10.35-0.6-15-2.55v31.648c0,4.2,1.051,4.95,3.301,4.95h6.6
			c1.199,0,1.35,0.6,1.35,1.5v2.55c0,0.9-0.301,1.35-1.35,1.35c-0.75,0-5.85-0.45-15.449-0.45c-8.701,0-13.951,0.45-15.15,0.45
			c-1.049,0-1.35-0.449-1.35-1.35v-2.7c0-0.75,0.301-1.35,1.799-1.35h5.852c2.549,0,2.85-1.5,3.148-3.75
			c0.451-3.3,0.451-11.399,0.451-26.099V185.136z M651.443,212.584c0,3.301,0.301,6,3.15,7.95c4.199,3,8.85,4.05,14.998,4.05
			c8.551,0,17.4-6.449,17.4-25.049c0-20.999-9.449-29.399-19.5-29.399c-6.299,0-12.449,3.6-16.049,9.6V212.584z"/>
		<path d="M716.992,145.837c0-9.15-1.799-10.8-7.199-12.6l-2.549-0.9c-0.9-0.3-1.051-0.45-1.051-0.9v-1.35
			c0-0.6,0.449-0.75,1.801-1.5l15.598-8.25c1.201-0.6,2.25-1.2,3.451-1.2c0.9,0,1.5,1.2,1.199,3.75
			c-0.299,2.55-0.449,32.999-0.449,40.499v9.6h0.75c5.25-6.3,13.949-9.75,20.549-9.75c6.299,0,10.648,1.95,14.85,6
			c6.75,6.3,6.449,13.949,6.449,22.049v8.549c0,8.399,0.301,17.699,0.301,20.55c0,1.799,2.398,2.25,5.549,2.25h2.551
			c1.199,0,1.648,0.299,1.648,1.35v2.25c0,1.199-0.299,1.8-1.199,1.8c-1.051,0-5.85-0.45-14.398-0.45c-7.352,0-12.75,0.45-14.1,0.45
			c-1.051,0-1.352-0.45-1.352-1.65v-2.55c0-0.75,0.15-1.199,1.051-1.199h3.449c2.551,0,5.551-0.301,5.701-2.851
			c0.148-2.1,0-10.05,0-14.849v-12.15c0-8.399-0.602-14.399-4.951-18.449c-3-2.85-6.148-4.2-9.898-4.2c-4.35,0-9.75,1.5-13.949,6.3
			c-1.352,1.65-3,4.65-3,7.35v32.699c0,4.8,0.449,6.15,3.299,6.15h4.5c1.051,0,1.65,0.299,1.65,1.199v2.55
			c0,1.05-0.301,1.65-1.199,1.65c-1.201,0-7.352-0.45-14.25-0.45c-7.5,0-13.199,0.45-14.549,0.45c-0.602,0-1.051-0.45-1.051-1.5
			v-2.7c0-1.05,0.6-1.199,2.25-1.199h3.15c2.398,0,4.648-0.601,4.949-2.4c0.449-2.85,0.449-19.349,0.449-29.099V145.837z"/>
		<path d="M780.141,260.732c0-3.149,3.299-5.85,6.9-5.85c2.85,0,5.549,1.35,6.898,1.65c1.051,0.149,2.25,0,3.15-0.9
			c2.25-2.7,9.9-19.799,12-25.648c-0.75-3.75-16.65-50.698-17.85-53.848c-1.801-3.75-3.15-6.3-7.051-6.3h-3.898
			c-1.051,0-1.201-0.45-1.201-1.35v-3c0-0.6,0.15-1.05,1.201-1.05c1.35,0,4.949,0.45,13.799,0.45c7.65,0,12.299-0.45,13.949-0.45
			c1.201,0,1.35,0.45,1.35,1.05v3.15c0,0.75-0.148,1.2-0.898,1.2h-2.852c-1.648,0-2.25,1.05-1.949,3.3
			c0.449,3.3,10.65,36.449,12.299,39.749h0.602c1.5-2.4,14.549-33.599,15.449-37.349c0.898-3.75-0.301-5.7-2.551-5.7h-2.4
			c-0.898,0-1.049-0.45-1.049-1.2v-3c0-0.75,0.15-1.2,0.9-1.2c1.949,0,5.1,0.45,12.299,0.45c4.049,0,7.5-0.45,9.15-0.45
			c0.898,0,0.898,0.6,0.898,1.2v2.85c0,0.9,0,1.35-0.75,1.35h-2.398c-1.65,0-3.75,0.75-5.25,2.7
			c-3.301,4.05-13.199,26.999-23.549,50.548c-7.35,16.649-13.201,30.599-15.9,35.549c-2.1,3.899-4.799,9.75-12.75,9.75
			C782.99,268.383,780.141,265.232,780.141,260.732z"/>
	</g>
</g>
<g id="Serif_Grayed_Out" display="none">
	<g display="inline">
		
			<circle fill="none" stroke="#A7A9AC" stroke-miterlimit="10" stroke-dasharray="3.9389,3.9389" cx="514.842" cy="225.349" r="12.541"/>
	</g>
</g>
<g id="Serif_Highlight" display="none">
	<g display="inline">
		
			<circle fill="none" stroke="#CC2127" stroke-miterlimit="10" stroke-dasharray="3.9389,3.9389" cx="633.38" cy="266.077" r="12.541"/>
	</g>
	<g display="inline">
		
			<circle fill="none" stroke="#CC2127" stroke-miterlimit="10" stroke-dasharray="3.9389,3.9389" cx="514.842" cy="225.349" r="12.541"/>
	</g>
	<g display="inline">
		
			<circle fill="none" stroke="#CC2127" stroke-miterlimit="10" stroke-dasharray="3.9389,3.9389" cx="313.703" cy="265.646" r="12.541"/>
	</g>
	<g display="inline">
		
			<circle fill="none" stroke="#CC2127" stroke-miterlimit="10" stroke-dasharray="3.9389,3.9389" cx="145.577" cy="225.16" r="12.541"/>
	</g>
	<g display="inline">
		
			<circle fill="none" stroke="#CC2127" stroke-miterlimit="10" stroke-dasharray="3.9389,3.9389" cx="116.164" cy="142.649" r="12.541"/>
	</g>
	<g display="inline">
		
			<circle fill="none" stroke="#CC2127" stroke-miterlimit="10" stroke-dasharray="3.9389,3.9389" cx="211.211" cy="167.423" r="12.541"/>
	</g>
	<g display="inline">
		
			<circle fill="none" stroke="#CC2127" stroke-miterlimit="10" stroke-dasharray="3.9389,3.9389" cx="846.527" cy="166.687" r="12.541"/>
	</g>
	<g display="inline">
		
			<circle fill="none" stroke="#CC2127" stroke-miterlimit="10" stroke-dasharray="3.9389,3.9389" cx="710.52" cy="130.158" r="12.541"/>
	</g>
</g>
</svg>
